<?xml version="1.0" encoding="UTF-8" standalone="no"?>
<svg xmlns="http://www.w3.org/2000/svg" version="1.2" baseProfile="tiny" viewBox="0.00 0.00 2048.00 1024.00">
<g stroke-width="2.00" fill="none" stroke-linecap="butt">
<path stroke="#e159c2" vector-effect="non-scaling-stroke" d="
  M 856.80 526.99
  Q 856.92 525.33 855.76 525.19
  Q 854.97 525.10 854.76 525.74"
/>
<path stroke="#e159c2" vector-effect="non-scaling-stroke" d="
  M 853.66 526.67
  Q 852.65 527.28 852.52 529.25"
/>
<path stroke="#e159c2" vector-effect="non-scaling-stroke" d="
  M 580.03 568.99
  L 579.75 567.27
  Q 579.68 566.84 579.43 567.20
  Q 578.84 568.02 578.78 568.98"
/>
</g>
<path fill="#c34cc1" d="
  M 238.26 164.31
  Q 242.74 163.75 247.26 163.10
  Q 253.87 162.15 255.20 169.00
  Q 256.38 175.02 250.83 175.95
  Q 244.09 177.07 237.26 177.56
  Q 236.77 177.59 236.59 178.05
  Q 235.77 180.16 236.97 181.93
  A 1.17 1.16 -13.6 0 0 237.81 182.44
  C 242.61 182.99 259.89 180.21 259.48 187.33
  C 259.25 191.23 258.31 196.29 253.44 196.45
  C 244.36 196.76 232.55 196.02 224.05 198.91
  A 0.64 0.63 69.3 0 1 223.26 198.55
  Q 221.48 194.32 221.78 189.75
  C 222.73 175.16 222.72 159.90 226.46 145.71
  Q 226.61 145.15 227.18 145.12
  L 259.34 143.24
  A 0.36 0.35 83.7 0 1 259.71 143.54
  C 260.25 146.99 261.72 156.73 257.02 157.61
  C 251.11 158.71 245.17 157.69 239.07 158.90
  Q 238.41 159.03 238.29 159.69
  L 237.60 163.61
  Q 237.46 164.41 238.26 164.31
  Z"
/>
<path fill="#c34cc1" d="
  M 321.06 176.54
  A 2.01 2.00 -0.3 0 0 319.10 178.51
  L 318.79 195.34
  A 1.75 1.75 0.0 0 1 317.41 197.01
  C 314.65 197.58 301.48 199.71 302.50 193.75
  Q 303.46 188.19 304.02 183.70
  C 304.63 178.82 304.55 172.48 305.22 166.84
  C 306.11 159.39 306.26 152.42 307.26 145.29
  A 2.02 2.02 0.0 0 1 309.32 143.55
  L 318.86 143.83
  A 1.06 1.06 0.0 0 1 319.89 144.92
  L 319.39 162.55
  A 0.92 0.92 0.0 0 0 320.31 163.50
  L 327.95 163.50
  Q 328.47 163.50 328.50 162.98
  L 329.86 144.05
  Q 329.90 143.44 330.51 143.44
  L 343.36 143.34
  Q 344.01 143.33 343.95 143.98
  C 343.21 151.70 342.10 160.15 342.87 167.82
  C 343.10 170.04 342.55 172.26 342.54 174.15
  Q 342.45 185.00 342.01 195.63
  A 1.64 1.64 0.0 0 1 340.35 197.21
  L 328.40 197.05
  Q 327.81 197.04 327.73 196.46
  Q 326.45 186.83 328.52 177.37
  A 0.81 0.80 -84.3 0 0 327.72 176.39
  L 321.06 176.54
  Z"
/>
<path fill="#c34cc1" d="
  M 192.91 158.85
  Q 188.45 159.40 184.02 158.50
  A 1.89 1.89 0.0 0 1 182.51 156.65
  L 182.50 147.27
  A 2.37 2.37 0.0 0 1 184.39 144.95
  C 192.28 143.34 200.84 144.43 208.96 143.76
  C 213.21 143.40 216.60 143.58 220.47 144.29
  A 1.86 1.85 -82.3 0 1 221.99 146.29
  L 221.20 154.98
  A 1.82 1.81 -89.1 0 1 219.50 156.63
  L 210.91 157.10
  A 1.30 1.30 0.0 0 0 209.69 158.33
  L 207.79 196.77
  Q 207.75 197.55 206.98 197.56
  L 194.82 197.82
  A 0.69 0.69 0.0 0 1 194.11 197.09
  C 194.66 185.06 193.90 172.85 194.98 160.85
  A 1.85 1.85 0.0 0 0 192.91 158.85
  Z"
/>
<path fill="#c34cc1" d="
  M 284.55 155.58
  Q 278.71 164.10 278.03 174.52
  C 277.81 177.94 278.43 185.63 283.99 184.38
  C 289.10 183.22 289.81 173.38 294.46 176.13
  C 297.25 177.77 301.77 179.45 299.51 183.78
  Q 297.30 188.01 295.02 192.20
  A 1.78 1.75 -89.1 0 1 294.33 192.88
  Q 286.10 197.35 276.91 197.98
  C 266.68 198.67 262.45 182.10 262.71 174.72
  C 263.08 164.69 268.47 146.74 280.32 144.13
  C 285.52 142.99 292.30 142.72 296.58 146.50
  Q 304.51 153.48 301.74 164.84
  Q 301.62 165.32 301.14 165.46
  L 291.50 168.20
  A 3.00 2.99 -13.3 0 1 287.74 165.88
  Q 286.81 160.88 286.71 156.39
  Q 286.70 156.04 286.56 155.77
  Q 286.34 155.33 286.18 155.23
  A 1.21 1.21 0.0 0 0 284.55 155.58
  Z"
/>
<path fill="#c34cc1" d="
  M 420.67 162.16
  A 1.89 1.88 -5.2 0 0 423.05 164.14
  C 425.53 163.45 435.28 161.90 436.92 164.83
  C 438.51 167.66 440.21 174.47 435.47 175.61
  Q 427.84 177.44 420.47 177.85
  A 1.53 1.52 -88.9 0 0 419.04 179.24
  Q 418.73 182.68 422.56 182.71
  Q 432.12 182.78 441.68 183.07
  Q 442.23 183.09 442.20 183.63
  C 441.98 188.72 443.42 196.14 435.93 196.44
  Q 420.76 197.04 405.90 197.67
  A 0.60 0.60 0.0 0 1 405.27 197.07
  Q 405.49 176.36 407.61 156.28
  C 407.87 153.82 409.01 150.50 408.71 147.45
  A 1.30 1.30 0.0 0 1 409.68 146.06
  Q 412.69 145.28 415.71 144.83
  C 418.26 144.45 422.48 145.00 425.97 144.28
  C 430.74 143.29 436.19 143.58 441.04 143.83
  A 1.15 1.13 72.7 0 1 441.88 144.28
  C 444.84 148.22 446.28 155.87 439.37 156.99
  Q 427.56 158.90 424.24 158.56
  Q 421.02 158.23 420.67 162.16
  Z"
/>
<path fill="#c34cc1" d="
  M 370.05 157.13
  C 370.12 152.97 369.92 145.72 375.71 145.39
  C 383.44 144.96 393.08 143.05 401.44 144.11
  C 407.62 144.90 405.22 151.62 404.74 155.48
  Q 404.57 156.83 403.22 156.91
  C 399.09 157.15 387.03 157.63 384.20 160.29
  Q 382.18 162.20 382.97 165.75
  Q 383.10 166.31 383.67 166.32
  L 400.32 166.51
  A 0.38 0.38 0.0 0 1 400.69 166.87
  C 400.85 169.32 402.10 176.25 399.46 177.48
  Q 392.54 180.72 385.32 179.91
  A 1.70 1.69 -88.4 0 0 383.44 181.70
  Q 383.90 189.50 382.11 197.12
  Q 382.00 197.58 381.52 197.59
  L 369.20 197.95
  Q 368.80 197.96 368.79 197.55
  C 368.44 184.18 369.83 170.55 370.05 157.13
  Z"
/>
<path fill="#c34cc1" d="
  M 492.93 158.69
  Q 488.34 160.16 483.46 159.67
  A 1.31 1.30 2.5 0 1 482.29 158.40
  C 482.17 153.13 481.48 150.03 483.68 144.95
  Q 483.88 144.47 484.41 144.40
  C 487.92 143.96 491.02 145.00 494.42 144.47
  C 498.98 143.77 503.46 144.42 507.83 143.94
  Q 514.51 143.20 519.02 144.00
  Q 520.53 144.27 520.61 146.01
  C 520.75 149.13 521.10 151.92 519.98 154.93
  A 1.42 1.42 0.0 0 1 519.23 155.72
  Q 514.69 157.78 509.71 157.24
  Q 507.59 157.02 507.57 159.15
  Q 507.43 176.56 506.38 195.24
  C 506.11 199.93 496.20 198.47 493.60 197.66
  Q 493.14 197.51 493.15 197.04
  L 493.32 158.97
  Q 493.32 158.56 492.93 158.69
  Z"
/>
<path fill="#c34cc1" d="
  M 464.79 154.74
  C 456.08 162.28 472.95 167.77 476.32 172.40
  C 480.37 177.96 480.37 191.29 474.70 194.46
  Q 466.66 198.96 456.07 197.67
  Q 452.92 197.28 446.02 192.84
  A 0.80 0.79 -69.9 0 1 445.67 192.08
  L 446.84 183.01
  A 0.62 0.61 88.8 0 1 447.34 182.48
  C 453.32 181.30 457.41 186.68 463.36 185.69
  A 1.12 1.10 -80.0 0 0 464.14 185.13
  Q 465.73 182.23 462.65 179.80
  C 455.13 173.87 443.80 169.49 448.32 157.53
  Q 454.99 139.82 474.11 145.73
  C 480.45 147.69 479.92 154.19 480.29 159.58
  A 1.52 1.49 59.9 0 1 480.06 160.48
  Q 476.82 165.51 470.67 163.04
  C 466.67 161.43 467.05 158.10 465.75 154.96
  A 0.61 0.60 -31.8 0 0 464.79 154.74
  Z"
/>
<path fill="#fe66c3" d="
  M 856.80 526.99
  Q 856.92 525.33 855.76 525.19
  Q 854.97 525.10 854.76 525.74
  Q 853.84 526.05 853.66 526.67
  Q 852.65 527.28 852.52 529.25
  L 852.00 529.49
  Q 851.59 529.68 851.15 529.68
  Q 811.31 530.05 771.48 529.18
  Q 770.96 529.16 770.52 528.89
  L 764.06 524.79
  A 1.21 1.21 0.0 0 0 762.27 525.40
  Q 761.72 526.96 761.71 529.00
  C 761.54 555.68 762.54 582.30 761.83 608.99
  C 761.47 622.29 761.51 634.51 761.49 647.28
  Q 761.49 647.82 760.95 647.82
  Q 749.86 647.72 738.97 647.73
  C 736.06 647.73 733.00 646.52 731.46 644.29
  Q 707.36 609.34 682.94 574.60
  Q 675.82 564.48 670.28 555.69
  Q 668.39 552.70 668.42 556.24
  L 668.84 611.97
  Q 668.86 613.55 667.28 613.57
  L 642.10 613.82
  A 1.11 1.10 -10.5 0 1 641.05 613.10
  C 640.09 610.57 640.74 607.83 640.74 605.80
  Q 640.76 567.15 640.73 526.27
  Q 640.73 525.10 639.56 525.09
  L 589.15 524.71
  A 0.24 0.23 -22.3 0 0 588.98 525.11
  L 589.24 525.36
  Q 589.52 525.64 589.66 526.01
  Q 612.78 584.91 635.57 643.94
  Q 635.84 644.64 635.98 647.12
  Q 636.01 647.66 635.49 647.76
  Q 633.84 648.09 630.94 648.06
  C 624.30 647.98 613.70 649.22 607.69 646.68
  Q 607.23 646.48 607.07 646.01
  Q 594.33 609.40 581.02 572.99
  Q 580.58 571.80 580.03 568.99
  L 579.75 567.27
  Q 579.68 566.84 579.43 567.20
  Q 578.84 568.02 578.78 568.98
  Q 568.28 601.27 556.80 633.25
  C 555.28 637.49 553.51 641.79 552.55 646.30
  A 1.96 1.94 -84.1 0 1 550.66 647.85
  L 523.40 648.06
  A 0.71 0.71 0.0 0 1 522.70 647.17
  C 524.03 642.01 526.78 636.21 528.13 632.66
  C 541.58 597.34 554.75 561.73 569.14 526.78
  A 1.34 1.33 11.2 0 0 567.90 524.94
  L 506.54 524.96
  Q 506.01 524.96 505.87 525.46
  Q 505.45 526.94 505.48 528.25
  C 506.73 590.76 505.11 653.23 506.04 715.75
  C 506.13 721.17 506.16 728.71 503.91 734.91
  A 0.94 0.93 -86.9 0 1 503.26 735.50
  Q 500.08 736.22 498.69 736.23
  Q 454.75 736.36 410.81 735.89
  Q 409.68 735.88 407.74 735.64
  Q 407.22 735.57 407.11 735.06
  Q 406.63 732.85 406.60 731.44
  C 404.98 662.82 406.42 594.22 406.23 525.60
  A 0.72 0.72 0.0 0 0 405.51 524.89
  L 308.55 525.04
  A 0.72 0.72 0.0 0 1 307.85 524.48
  Q 307.27 521.89 307.39 519.25
  Q 308.01 506.05 307.62 492.85
  Q 307.61 492.26 308.20 492.26
  C 340.34 492.24 372.33 492.11 404.47 492.98
  A 0.68 0.68 0.0 0 0 405.04 491.90
  Q 394.91 477.96 385.33 464.46
  Q 311.73 360.79 237.50 257.57
  Q 237.48 257.53 230.39 248.02
  Q 225.98 242.10 218.33 231.18
  Q 214.60 225.85 218.22 221.23
  C 219.08 220.14 221.47 219.55 223.06 219.54
  Q 299.67 219.19 328.94 219.83
  Q 331.82 219.90 334.31 223.38
  Q 385.13 294.70 436.01 365.97
  Q 445.72 379.58 454.56 392.72
  Q 455.39 393.95 456.25 392.74
  L 508.47 319.50
  Q 508.81 319.02 509.39 319.02
  Q 563.63 318.60 617.74 318.79
  C 620.93 318.80 624.04 318.56 627.00 319.55
  A 1.60 1.60 0.0 0 1 627.79 321.99
  L 507.07 491.39
  A 0.81 0.74 16.2 0 0 507.79 492.57
  C 694.01 492.65 873.64 492.53 1056.47 492.06
  C 1061.11 492.04 1066.62 491.05 1070.56 491.04
  C 1174.91 490.80 1280.33 491.18 1385.23 490.97
  Q 1385.48 490.97 1385.74 490.85
  Q 1386.08 490.70 1386.25 490.71
  Q 1404.97 491.16 1424.34 490.99
  Q 1425.28 490.99 1424.80 490.17
  C 1412.41 468.99 1409.52 442.13 1419.23 418.96
  C 1430.87 391.20 1461.43 376.92 1489.76 374.49
  C 1518.39 372.03 1549.50 375.55 1576.29 386.62
  C 1623.68 406.20 1663.57 446.24 1690.09 488.93
  Q 1691.25 490.79 1693.06 490.79
  Q 1723.13 490.82 1752.00 491.10
  Q 1753.64 491.11 1753.63 492.75
  L 1753.46 522.05
  Q 1753.45 522.56 1752.95 522.56
  L 1710.05 522.42
  A 0.30 0.29 0.0 0 0 1709.75 522.71
  Q 1709.75 637.80 1709.75 753.04
  C 1709.75 758.83 1708.36 758.96 1703.24 758.98
  Q 1688.74 759.05 1675.50 758.98
  Q 1673.52 758.97 1673.52 756.99
  L 1673.49 618.73
  A 0.69 0.68 7.8 0 0 1672.98 618.07
  Q 1671.80 617.77 1670.71 618.39
  Q 1670.30 618.63 1669.84 618.62
  Q 1634.78 618.03 1599.75 619.24
  C 1593.87 619.45 1582.57 621.64 1576.75 624.43
  C 1554.87 634.92 1553.89 657.06 1560.80 676.91
  C 1564.75 688.27 1573.59 698.83 1581.82 707.43
  C 1595.40 721.62 1606.49 729.76 1619.01 740.89
  Q 1619.87 741.65 1619.03 742.43
  Q 1608.97 751.74 1599.85 760.66
  C 1596.87 763.57 1594.63 763.45 1591.59 760.92
  C 1569.57 742.61 1549.31 723.02 1534.33 699.37
  Q 1517.41 672.66 1522.58 641.02
  C 1526.34 618.00 1545.65 600.73 1567.20 593.68
  Q 1585.16 587.80 1602.81 587.48
  Q 1637.95 586.85 1673.08 587.26
  Q 1673.54 587.26 1673.54 586.80
  L 1673.51 523.01
  A 0.51 0.50 0.0 0 0 1673.00 522.51
  Q 1569.20 522.50 1466.75 522.39
  Q 1466.26 522.39 1465.96 522.30
  A 0.74 0.74 0.0 0 0 1465.02 523.01
  L 1464.94 756.60
  A 2.02 2.01 -3.4 0 1 1463.16 758.60
  C 1453.01 759.76 1441.60 759.02 1430.69 758.91
  Q 1429.29 758.90 1429.29 757.50
  Q 1429.21 671.16 1429.27 583.99
  C 1429.28 566.10 1428.50 547.44 1429.05 529.06
  C 1429.10 527.67 1428.84 526.24 1428.75 524.83
  Q 1428.65 523.44 1428.24 522.91
  C 1427.40 521.83 1426.05 522.49 1425.21 522.49
  Q 1370.61 522.51 1316.00 522.50
  C 1303.65 522.50 1289.78 524.50 1278.36 524.69
  Q 1269.07 524.84 1260.00 524.72
  A 1.05 1.05 0.0 0 0 1258.93 525.78
  L 1259.30 606.74
  A 0.56 0.56 0.0 0 0 1260.27 607.12
  C 1265.68 601.24 1271.14 596.57 1278.83 593.50
  C 1284.88 591.09 1290.89 588.55 1297.29 587.81
  C 1309.99 586.36 1323.33 586.99 1335.05 591.89
  C 1361.27 602.84 1372.47 627.72 1372.21 655.79
  C 1371.93 685.12 1362.93 717.66 1344.67 741.23
  A 1.71 1.70 32.3 0 1 1342.55 741.70
  Q 1329.57 735.06 1316.68 727.34
  Q 1314.45 726.01 1313.51 724.38
  A 1.03 1.02 -44.7 0 1 1313.52 723.34
  Q 1321.80 709.61 1326.39 700.40
  Q 1339.79 673.56 1335.70 643.06
  C 1335.34 640.43 1334.23 636.49 1332.95 634.08
  C 1322.80 614.96 1300.44 613.63 1283.56 624.57
  Q 1271.54 632.36 1262.34 643.35
  Q 1259.15 647.15 1259.14 652.25
  C 1259.01 694.22 1258.01 736.45 1260.75 778.37
  A 1.93 1.92 84.6 0 1 1259.07 780.41
  Q 1249.94 781.52 1240.30 784.38
  C 1224.45 789.09 1212.06 803.39 1214.61 820.44
  C 1216.32 831.91 1228.89 839.93 1240.01 841.71
  C 1259.55 844.84 1279.16 838.82 1295.91 828.95
  A 1.17 1.16 62.0 0 1 1297.55 829.46
  Q 1303.94 842.98 1307.33 857.50
  A 2.13 2.12 -20.3 0 1 1306.24 859.86
  C 1290.92 867.85 1274.48 872.96 1257.08 874.04
  C 1240.39 875.09 1220.53 872.07 1206.75 862.29
  C 1193.77 853.07 1183.12 837.20 1182.38 821.56
  C 1181.85 810.32 1181.71 798.65 1187.06 788.63
  Q 1198.49 767.22 1222.07 757.77
  Q 1222.91 757.44 1222.90 756.53
  Q 1222.74 724.10 1223.31 691.10
  C 1223.34 689.30 1223.07 687.48 1222.90 685.73
  A 0.66 0.66 0.0 0 0 1221.80 685.31
  Q 1200.09 705.47 1171.12 707.71
  C 1152.25 709.17 1131.03 706.30 1114.82 695.80
  C 1092.63 681.43 1083.87 660.24 1083.51 633.75
  C 1083.15 608.11 1094.15 586.83 1115.94 573.17
  C 1119.43 570.98 1124.85 567.65 1129.40 565.92
  C 1146.84 559.29 1163.05 558.69 1181.55 559.47
  C 1190.47 559.84 1200.18 561.50 1209.57 562.46
  Q 1210.23 562.53 1210.18 563.20
  L 1207.90 593.95
  A 0.70 0.69 -84.7 0 1 1207.14 594.59
  C 1194.49 593.37 1180.65 591.15 1168.42 591.66
  Q 1160.41 592.00 1152.45 593.23
  C 1143.91 594.56 1132.83 601.60 1127.42 608.30
  C 1121.18 616.01 1119.26 625.01 1119.36 635.04
  C 1119.46 644.85 1122.54 658.21 1130.31 665.16
  C 1144.41 677.76 1164.55 680.00 1182.25 674.46
  C 1196.39 670.04 1209.92 659.34 1220.94 648.93
  C 1222.02 647.91 1222.84 647.07 1222.85 645.47
  C 1223.18 605.76 1222.53 566.04 1223.08 526.33
  Q 1223.10 525.04 1221.81 525.04
  L 1027.21 524.92
  Q 1026.81 524.92 1026.95 525.29
  Q 1047.11 576.98 1067.18 628.80
  C 1068.64 632.58 1073.48 643.40 1072.45 647.41
  A 0.71 0.70 -82.5 0 1 1071.77 647.94
  L 1047.95 647.96
  A 3.82 3.80 -9.6 0 1 1044.35 645.41
  L 1017.40 568.59
  Q 1017.04 567.56 1016.68 568.59
  L 989.99 645.93
  A 2.95 2.95 0.0 0 1 987.16 647.91
  L 961.17 647.50
  Q 960.59 647.49 960.53 646.92
  C 960.31 644.69 961.36 643.49 962.06 641.74
  C 968.56 625.57 974.29 608.95 980.71 592.96
  Q 990.21 569.32 999.14 545.46
  C 1001.74 538.52 1004.74 531.92 1007.67 525.14
  A 0.09 0.09 0.0 0 0 1007.59 525.02
  L 950.19 524.85
  Q 949.72 524.85 949.87 525.29
  Q 952.82 534.18 953.39 536.57
  C 957.02 552.03 952.40 570.85 938.70 580.41
  C 935.83 582.41 932.29 583.94 928.77 585.36
  Q 928.19 585.59 928.45 586.15
  Q 941.25 613.85 954.01 641.49
  Q 955.45 644.61 955.28 647.45
  Q 955.25 647.99 954.72 647.99
  Q 942.10 647.99 929.51 647.99
  C 927.35 647.99 926.44 647.70 925.46 645.68
  Q 912.44 618.84 900.76 592.11
  A 2.86 2.85 -11.6 0 0 898.16 590.40
  L 885.98 590.32
  Q 885.44 590.32 885.43 590.86
  Q 884.90 623.62 885.47 642.49
  Q 885.62 647.63 881.01 647.76
  Q 869.15 648.09 857.25 647.92
  A 0.62 0.62 0.0 0 1 856.73 646.98
  L 856.97 646.58
  Q 857.20 646.19 857.21 645.72
  Q 857.93 604.36 857.08 562.99
  A 0.64 0.64 0.0 0 1 857.74 562.34
  Q 883.03 563.17 908.50 562.52
  C 918.71 562.26 926.30 557.52 926.16 546.49
  C 926.01 534.06 914.14 531.12 903.67 531.05
  Q 882.83 530.91 861.98 530.95
  C 858.30 530.95 856.90 531.23 856.80 526.99
  Z
  M 1464.75 490.64
  C 1518.57 491.39 1572.48 491.16 1626.31 490.92
  Q 1640.38 490.85 1653.22 491.41
  Q 1655.53 491.51 1653.97 489.81
  C 1650.02 485.50 1646.64 480.67 1642.80 476.59
  C 1637.03 470.47 1631.17 463.27 1625.89 457.96
  C 1606.73 438.69 1585.26 423.52 1560.40 414.08
  C 1537.47 405.39 1515.02 403.46 1490.85 407.49
  Q 1478.61 409.53 1467.70 417.16
  C 1442.27 434.95 1446.73 466.80 1461.09 489.21
  C 1462.24 491.00 1462.88 490.61 1464.75 490.64
  Z
  M 733.39 525.16
  A 0.31 0.31 0.0 0 0 733.08 524.85
  L 682.95 524.86
  A 0.31 0.31 0.0 0 0 682.69 525.35
  L 733.39 597.53
  A 0.31 0.31 0.0 0 0 733.95 597.35
  L 733.39 525.16
  Z"
/>
<path fill="#c34cc1" d="
  M 856.80 526.99
  Q 856.09 525.41 854.76 525.74
  Q 854.97 525.10 855.76 525.19
  Q 856.92 525.33 856.80 526.99
  Z"
/>
<path fill="#c34cc1" d="
  M 853.66 526.67
  Q 853.66 528.55 852.52 529.25
  Q 852.65 527.28 853.66 526.67
  Z"
/>
<rect fill="#fe66c3" x="796.93" y="555.77" width="28.52" height="92.06" rx="2.12"/>
<path fill="#c34cc1" d="
  M 580.03 568.99
  L 578.78 568.98
  Q 578.84 568.02 579.43 567.20
  Q 579.68 566.84 579.75 567.27
  L 580.03 568.99
  Z"
/>
</svg>
